<svg xmlns="http://www.w3.org/2000/svg" width="2880" height="2880" preserveAspectRatio="xMidYMid meet" version="1.0" viewBox="0 0 2160 2160"><metadata>Created by potrace 1.11, written by Peter Selinger 2001-2013</metadata><g fill="#000" stroke="none"><path d="M6218 18514 c-84 -20 -159 -76 -192 -144 -7 -14 -18 -50 -26 -81 -11 -48 -10 -65 4 -123 10 -37 32 -100 50 -139 33 -70 167 -363 221 -482 34 -75 121 -264 170 -370 20 -44 68 -147 105 -230 37 -82 84 -184 103 -225 33 -71 121 -263 165 -360 11 -25 47 -103 80 -175 51 -109 126 -273 362 -790 13 -27 43 -92 67 -144 24 -52 42 -95 41 -96 -2 -1 -59 -39 -128 -85 -159 -107 -284 -199 -439 -324 -68 -56 -129 -105 -137 -111 -9 -7 -32 0 -76 23 -35 18 -69 32 -77 32 -8 0 -35 13 -60 29 -79 49 -141 56 -511 56 -353 0 -398 -4 -487 -48 -24 -11 -43 -24 -43 -29 0 -4 -10 -8 -23 -8 -23 0 -42 -9 -152 -70 -118 -66 -277 -179 -335 -240 -108 -112 -184 -198 -197 -224 -8 -16 -19 -34 -25 -40 -32 -38 -108 -151 -108 -161 0 -7 -16 -46 -37 -86 -20 -41 -40 -87 -44 -104 -4 -16 -20 -68 -35 -115 -69 -220 -70 -232 -67 -550 1 -173 4 -194 36 -332 20 -80 42 -161 51 -180 9 -18 17 -42 19 -53 6 -39 108 -247 132 -272 8 -8 15 -18 15 -23 0 -5 6 -15 13 -22 7 -7 29 -36 49 -65 50 -70 68 -91 105 -127 l33 -31 -36 -105 c-78 -226 -178 -585 -200 -720 -3 -19 -8 -38 -10 -41 -2 -3 -6 -21 -9 -40 -3 -19 -15 -86 -26 -149 -26 -144 -23 -125 -45 -287 -2 -18 -6 -48 -8 -65 -3 -18 -7 -62 -11 -98 -3 -36 -8 -83 -10 -105 -15 -139 -20 -302 -20 -613 l0 -352 -50 5 c-27 4 -63 8 -80 10 -16 3 -98 5 -180 6 -139 1 -208 10 -345 44 -48 12 -188 88 -253 136 -181 136 -323 333 -406 564 -12 33 -23 69 -26 80 -2 11 -8 36 -13 55 -5 19 -10 70 -11 112 l-2 77 52 48 c85 78 107 102 204 223 97 120 111 141 183 280 63 123 97 223 148 435 12 48 34 267 34 337 0 70 -21 267 -36 328 -3 14 -9 41 -14 60 -5 19 -17 63 -28 98 -11 34 -18 62 -15 62 3 0 -2 11 -10 24 -9 13 -18 36 -21 50 -15 85 -175 348 -285 469 -67 75 -175 180 -211 207 -89 68 -136 100 -146 100 -7 0 -14 4 -16 9 -1 5 -48 32 -103 61 -77 40 -136 61 -254 91 -247 63 -285 69 -441 69 -206 0 -501 -71 -685 -164 -100 -51 -93 -47 -192 -116 -73 -51 -247 -217 -314 -300 -46 -58 -171 -246 -188 -285 -28 -63 -81 -200 -81 -211 0 -6 -9 -31 -19 -55 -11 -24 -27 -78 -36 -119 -20 -96 -23 -108 -30 -130 -3 -10 -8 -29 -11 -42 -6 -31 -6 -411 0 -429 3 -8 7 -25 10 -39 2 -14 9 -43 14 -65 6 -22 19 -74 28 -115 9 -41 23 -88 31 -103 8 -16 16 -36 18 -45 12 -53 140 -311 164 -332 3 -3 18 -21 33 -42 15 -20 33 -42 40 -50 8 -7 29 -33 48 -58 39 -52 167 -181 223 -226 37 -30 38 -33 48 -125 12 -115 28 -231 40 -284 12 -56 32 -156 36 -180 8 -47 37 -158 68 -261 19 -61 36 -119 38 -130 2 -10 8 -29 15 -41 7 -12 12 -27 12 -34 0 -6 21 -55 46 -108 25 -53 55 -116 65 -141 50 -114 152 -301 223 -405 77 -113 70 -104 104 -145 15 -19 45 -60 67 -90 21 -30 53 -71 70 -90 67 -73 243 -247 300 -295 32 -27 68 -59 79 -71 12 -11 44 -38 71 -59 28 -20 52 -40 55 -44 16 -22 327 -211 347 -211 2 0 21 -11 42 -25 21 -14 48 -28 61 -30 12 -2 30 -11 40 -20 9 -8 23 -15 31 -15 8 0 33 -11 57 -25 24 -13 80 -37 125 -51 45 -15 96 -32 112 -39 17 -7 55 -18 85 -25 30 -7 60 -16 65 -20 21 -17 133 -37 210 -39 44 -1 118 -8 165 -15 47 -8 152 -17 235 -21 137 -5 211 -16 320 -47 22 -7 43 -12 47 -12 8 -1 56 -39 104 -81 l23 -20 -24 -45 c-13 -25 -27 -52 -30 -60 -4 -8 -15 -33 -25 -55 -32 -68 -51 -125 -86 -255 -39 -141 -38 -140 -55 -307 -35 -358 65 -771 257 -1058 119 -178 194 -264 329 -373 39 -31 72 -59 75 -62 42 -42 273 -171 336 -186 16 -4 43 -15 61 -25 79 -44 135 -51 448 -56 350 -6 445 3 552 53 30 13 60 24 67 24 7 0 34 11 60 25 26 14 53 25 60 25 8 0 19 7 26 15 12 14 17 12 44 -13 30 -28 257 -209 306 -244 14 -10 50 -36 80 -59 84 -62 291 -197 430 -281 452 -272 900 -467 1450 -632 173 -53 517 -128 734 -162 21 -3 48 -7 60 -10 11 -2 46 -7 76 -10 30 -3 69 -7 85 -9 260 -33 393 -40 745 -40 263 0 425 6 545 20 17 2 57 6 90 9 63 6 133 15 175 22 14 2 45 6 70 10 103 12 392 68 520 99 288 70 694 200 875 279 17 8 90 40 164 71 468 202 1030 546 1411 865 30 25 66 54 79 65 107 88 235 207 405 377 l199 200 61 -26 c103 -44 173 -66 286 -91 8 -2 56 -12 105 -23 50 -11 113 -24 140 -28 28 -4 1162 -9 2520 -11 2285 -3 2475 -2 2539 13 78 19 107 38 165 109 17 21 51 141 46 164 -10 49 -37 136 -65 211 -17 47 -39 108 -49 135 -10 28 -37 102 -61 165 -23 63 -59 162 -80 220 -21 58 -59 161 -85 230 -26 69 -55 148 -64 175 -10 28 -68 186 -129 353 -62 166 -112 305 -112 308 0 3 -14 25 -30 49 -35 51 -101 100 -150 111 -19 5 -878 10 -1907 11 -1030 2 -1873 7 -1873 11 0 5 13 44 29 89 26 71 106 325 116 371 2 9 12 44 21 77 9 33 17 67 19 75 2 8 11 44 20 80 10 36 19 79 21 95 2 17 8 44 14 60 5 17 11 44 14 60 3 17 14 77 25 135 10 58 22 130 26 160 3 30 8 62 10 70 5 18 25 175 31 250 3 30 7 73 9 95 14 139 20 306 20 565 0 309 -7 474 -29 655 -3 28 -8 75 -11 105 -3 30 -8 66 -10 80 -2 14 -11 72 -19 130 -9 58 -18 115 -20 126 -2 12 -7 39 -10 60 -4 21 -23 113 -43 204 -19 91 -38 175 -41 188 l-4 22 1757 0 c1563 0 1764 2 1818 16 123 32 165 81 237 276 28 79 56 152 60 163 4 11 16 43 25 70 19 54 61 168 75 200 4 11 81 220 170 465 89 245 168 459 176 477 8 17 14 35 14 40 0 5 12 38 26 73 14 35 34 96 43 134 15 63 16 77 3 131 -14 63 -59 144 -79 145 -7 0 -13 3 -13 8 0 13 -41 33 -99 49 -49 13 -343 15 -2491 16 -2510 0 -2535 0 -2704 -39 -33 -7 -63 -11 -68 -8 -5 3 -26 29 -47 58 -53 71 -225 281 -308 375 -83 95 -437 448 -518 518 -33 29 -73 64 -90 78 -16 15 -56 47 -87 72 -32 25 -58 47 -58 48 0 4 85 193 123 275 19 41 45 98 57 125 13 28 37 82 55 120 18 39 97 210 175 380 78 171 152 333 165 360 37 81 140 306 165 360 24 52 135 295 272 595 44 96 98 212 119 258 22 45 39 84 39 86 0 2 20 46 44 97 37 79 193 420 289 631 84 183 66 322 -55 418 -86 69 -92 70 -913 70 -594 0 -740 -3 -782 -14 -29 -8 -53 -12 -53 -9 0 2 -17 -6 -37 -18 -50 -30 -105 -90 -130 -142 -26 -51 -83 -174 -113 -242 -13 -27 -42 -92 -66 -143 -24 -51 -44 -95 -44 -97 0 -3 -18 -41 -39 -85 -22 -44 -37 -80 -34 -80 3 0 1 -6 -5 -12 -5 -7 -45 -89 -87 -183 -43 -93 -97 -212 -121 -263 -24 -52 -44 -95 -44 -97 0 -2 -20 -46 -44 -97 -24 -51 -67 -142 -94 -203 -28 -60 -66 -144 -85 -186 -20 -42 -58 -125 -85 -185 -27 -60 -63 -138 -80 -174 -16 -36 -42 -92 -57 -125 -160 -349 -206 -449 -209 -452 -2 -2 -98 28 -212 66 -115 39 -265 85 -333 104 -144 38 -121 14 -220 232 -36 77 -84 182 -108 233 -23 52 -43 95 -43 97 0 2 -22 50 -49 107 -47 101 -58 124 -128 278 -49 106 -75 162 -160 350 -42 91 -95 207 -119 258 -24 52 -44 95 -44 97 0 13 -117 247 -140 280 -94 137 -303 160 -428 47 -23 -21 -42 -44 -42 -50 0 -7 -4 -12 -9 -12 -4 0 -86 -170 -181 -377 -95 -208 -188 -412 -207 -453 -19 -41 -57 -124 -85 -185 -50 -109 -76 -166 -157 -338 -22 -49 -41 -90 -41 -92 0 -2 -22 -50 -48 -107 -27 -57 -57 -122 -67 -144 -18 -41 -19 -42 -79 -49 -34 -4 -68 -8 -76 -10 -8 -1 -40 -6 -70 -10 -30 -4 -64 -8 -75 -10 -11 -2 -40 -7 -65 -11 -25 -4 -47 -8 -50 -9 -3 -1 -27 -5 -55 -10 -76 -12 -84 -13 -93 -18 -4 -3 -25 -8 -47 -11 -38 -6 -193 -41 -226 -51 -15 -5 -26 14 -117 215 -17 36 -55 119 -85 185 -30 66 -132 289 -227 495 -94 206 -182 398 -195 425 -13 28 -62 136 -110 240 -48 105 -97 213 -110 240 -84 181 -105 227 -105 230 0 1 -18 41 -39 87 -22 45 -64 136 -93 200 -90 197 -137 245 -266 273 -103 21 -1495 21 -1584 -1z" transform="translate(0.000000,2160.000000) scale(0.100000,-0.100000)"/></g></svg>